# xmcd CD database file generated by OrangeCD 6.2
#
# Track frame offsets:
#	150
#	13387
#	28512
#	39387
#	53232
#	66350
#	77462
#	87905
#	99680
#	112262
#	125942
#	138037
#	153825
#	168325
#	180675
#	192587
#	204050
#	216457
#	227082
#	242017
#	261275
#	275272
#	287162
#
# Disc length: 3960 seconds
#
# Revision: 2
# Processed by: cddbd v1.5.2PL0 Copyright (c) Steve Scherf et al.
# Submitted via: OrangeCD 6.2
#
DISCID=500f7617
DTITLE=Conway Twitty - 22 Golden Greats
DYEAR=1994
DGENRE=Country
TTITLE0=After All The Good Is Gone
TTITLE1=After Our Last Date
TTITLE2=As Soon As I Pick Up The Phone
TTITLE3=Baby's Gone
TTITLE4=Danny Boy
TTITLE5=Hello Darlin'
TTITLE6=(I Can't Believe) - She Gives It All To Me
TTITLE7=I Can't See Me Without You
TTITLE8=I've Hurt Her More Than She Loves Me
TTITLE9=Play The Games That Daddies Play
TTITLE10=She Needs Someone To Hold Her When She Cries
TTITLE11=Touch The Wind
TTITLE12=You've Never Been This Far Before
TTITLE13=I've Already Loved You In My Mind
TTITLE14=Linda On My Mind
TTITLE15=I'm Not Through Loving You Yet
TTITLE16=I See The Want To In Your Eyes
TTITLE17=It's Only Make Believe
TTITLE18=Play Guitar Play
TTITLE19=Don't Cry Joni
TTITLE20=Fifteen Years Ago
TTITLE21=To See An Angel Cry
TTITLE22=I'll Try
EXTD=
EXTT0=
EXTT1=
EXTT2=
EXTT3=
EXTT4=
EXTT5=
EXTT6=
EXTT7=
EXTT8=
EXTT9=
EXTT10=
EXTT11=
EXTT12=
EXTT13=
EXTT14=
EXTT15=
EXTT16=
EXTT17=
EXTT18=
EXTT19=
EXTT20=
EXTT21=
EXTT22=
PLAYORDER=
